<?xml version="1.0" encoding="UTF-8"?>
<!DOCTYPE svg PUBLIC "-//W3C//DTD SVG 1.1//EN" "http://www.w3.org/Graphics/SVG/1.1/DTD/svg11.dtd">
<svg xmlns="http://www.w3.org/2000/svg" version="1.1" width="386px" height="86px" style="shape-rendering:geometricPrecision; text-rendering:geometricPrecision; image-rendering:optimizeQuality; fill-rule:evenodd; clip-rule:evenodd" xmlns:xlink="http://www.w3.org/1999/xlink">
<g><path style="opacity:0.757" fill="#647553" d="M 21.5,-0.5 C 26.5,-0.5 31.5,-0.5 36.5,-0.5C 39.7131,0.487342 43.0465,1.48734 46.5,2.5C 47.4287,3.68884 47.762,5.02218 47.5,6.5C 43.2984,6.81675 39.2984,6.48342 35.5,5.5C 38.8984,5.82036 42.2317,5.48702 45.5,4.5C 45,4.16667 44.5,3.83333 44,3.5C 35.9531,0.716055 27.7865,0.216055 19.5,2C 18.2899,3.0391 17.2899,4.20577 16.5,5.5C 14.953,6.76815 13.953,8.43482 13.5,10.5C 13.1667,10.5 12.8333,10.5 12.5,10.5C 13.7076,5.29891 16.7076,1.63224 21.5,-0.5 Z"/></g>
<g><path style="opacity:1" fill="#a48543" d="M 35.5,5.5 C 35.1667,5.5 34.8333,5.5 34.5,5.5C 31.8166,3.71912 28.8166,3.21912 25.5,4C 24.6634,5.01127 24.33,6.17793 24.5,7.5C 24.5,7.83333 24.5,8.16667 24.5,8.5C 23.8333,8.83333 23.1667,9.16667 22.5,9.5C 22.5,8.16667 22.5,6.83333 22.5,5.5C 20.5,5.5 18.5,5.5 16.5,5.5C 17.2899,4.20577 18.2899,3.0391 19.5,2C 27.7865,0.216055 35.9531,0.716055 44,3.5C 44.5,3.83333 45,4.16667 45.5,4.5C 42.2317,5.48702 38.8984,5.82036 35.5,5.5 Z"/></g>
<g><path style="opacity:0.651" fill="#6d754c" d="M 34.5,5.5 C 30.8215,5.06035 27.4882,5.72702 24.5,7.5C 24.33,6.17793 24.6634,5.01127 25.5,4C 28.8166,3.21912 31.8166,3.71912 34.5,5.5 Z"/></g>
<g><path style="opacity:0.024" fill="#2a6368" d="M 191.5,6.5 C 195.5,5.16667 199.5,5.16667 203.5,6.5C 201.219,6.07729 199.552,6.74395 198.5,8.5C 197.833,8.16667 197.167,7.83333 196.5,7.5C 195.081,6.54885 193.415,6.21552 191.5,6.5 Z"/></g>
<g><path style="opacity:0.035" fill="#305a6d" d="M 223.5,6.5 C 225.389,5.25844 227.389,5.25844 229.5,6.5C 229.5,7.83333 229.5,9.16667 229.5,10.5C 228.833,9.5 228.167,8.5 227.5,7.5C 226.432,6.56552 225.099,6.23219 223.5,6.5 Z"/></g>
<g><path style="opacity:0.996" fill="#b0cbce" d="M 341.5,6.5 C 342.765,7.47934 344.099,8.47934 345.5,9.5C 345.333,9.83333 345.167,10.1667 345,10.5C 342.959,9.57692 340.792,9.24358 338.5,9.5C 338.611,8.88258 338.944,8.38258 339.5,8C 334.845,7.50085 330.179,7.33418 325.5,7.5C 325.5,11.8333 325.5,16.1667 325.5,20.5C 325.171,26.2055 325.505,31.8722 326.5,37.5C 327.167,33.3525 327.834,29.3525 328.5,25.5C 328.5,30.1667 328.5,34.8333 328.5,39.5C 326.833,39.5 325.167,39.5 323.5,39.5C 323.333,28.495 323.5,17.495 324,6.5C 329.617,5.39918 335.45,5.39918 341.5,6.5 Z"/></g>
<g><path style="opacity:1" fill="#fcfefd" d="M 242.5,7.5 C 243.474,17.4176 243.807,27.4176 243.5,37.5C 242.175,33.5549 241.508,29.2216 241.5,24.5C 241.527,19.7832 241.86,15.1165 242.5,10.5C 239.215,9.67636 235.882,9.17636 232.5,9C 235.619,7.59491 238.952,7.09491 242.5,7.5 Z"/></g>
<g><path style="opacity:1" fill="#dbeced" d="M 298.5,10.5 C 297.256,15.0352 297.256,19.7019 298.5,24.5C 297.069,24.8807 296.236,25.8807 296,27.5C 295.003,20.5327 294.503,13.5327 294.5,6.5C 302.14,5.73041 310.14,5.73041 318.5,6.5C 318.5,7.83333 318.5,9.16667 318.5,10.5C 311.833,10.5 305.167,10.5 298.5,10.5 Z"/></g>
<g><path style="opacity:1" fill="#f9fdfe" d="M 338.5,9.5 C 334.958,9.18723 331.625,9.52056 328.5,10.5C 328.5,13.8333 328.5,17.1667 328.5,20.5C 327.5,20.5 326.5,20.5 325.5,20.5C 325.5,16.1667 325.5,11.8333 325.5,7.5C 330.179,7.33418 334.845,7.50085 339.5,8C 338.944,8.38258 338.611,8.88258 338.5,9.5 Z"/></g>
<g><path style="opacity:0.914" fill="#396a5b" d="M 54.5,35.5 C 54.5,32.1667 54.5,28.8333 54.5,25.5C 52.5,25.5 50.5,25.5 48.5,25.5C 49.1175,23.7708 50.1175,22.2708 51.5,21C 49.3645,20.1237 48.0312,18.6237 47.5,16.5C 51.7517,17.0491 55.5851,17.0491 59,16.5C 59.7958,13.9615 59.6291,11.6282 58.5,9.5C 57.1667,9.83333 57.1667,10.1667 58.5,10.5C 57.791,11.404 56.791,11.7373 55.5,11.5C 52.8417,10.4773 50.175,10.8106 47.5,12.5C 47.1667,11.1667 46.8333,11.1667 46.5,12.5C 45.8333,12.5 45.5,12.8333 45.5,13.5C 45.2627,14.791 45.596,15.791 46.5,16.5C 47.692,22.6332 46.692,22.9665 43.5,17.5C 43.9231,14.3974 44.9231,11.564 46.5,9C 50.5451,7.79336 54.5451,6.79336 58.5,6C 62.6767,10.9538 62.3433,15.6204 57.5,20C 56.552,20.4828 55.552,20.6495 54.5,20.5C 55.6186,25.6529 55.6186,30.6529 54.5,35.5 Z"/></g>
<g><path style="opacity:1" fill="#f0fdfe" d="M 244.5,6.5 C 245.167,6.5 245.833,6.5 246.5,6.5C 249.068,7.44963 251.568,7.44963 254,6.5C 254.484,8.19334 253.984,9.52668 252.5,10.5C 250.167,10.5 247.833,10.5 245.5,10.5C 244.833,19.5 244.167,28.5 243.5,37.5C 243.807,27.4176 243.474,17.4176 242.5,7.5C 243.492,7.67158 244.158,7.33825 244.5,6.5 Z"/></g>
<g><path style="opacity:1" fill="#eff7f8" d="M 282.5,39.5 C 282.5,34.1667 282.5,28.8333 282.5,23.5C 276.5,23.5 270.5,23.5 264.5,23.5C 264.5,22.5 264.5,21.5 264.5,20.5C 270.5,20.5 276.5,20.5 282.5,20.5C 282.5,15.8333 282.5,11.1667 282.5,6.5C 284.185,5.15599 285.852,5.32266 287.5,7C 286.513,17.7517 286.18,28.585 286.5,39.5C 285.167,39.5 283.833,39.5 282.5,39.5 Z"/></g>
<g><path style="opacity:0.29" fill="#5c8d93" d="M 174.5,6.5 C 175.167,11.1667 175.833,15.8333 176.5,20.5C 176.167,21.5 175.5,22.1667 174.5,22.5C 174.5,17.1667 174.5,11.8333 174.5,6.5 Z"/></g>
<g><path style="opacity:0.963" fill="#97c4c6" d="M 246.5,6.5 C 249.304,5.36216 252.304,5.19549 255.5,6C 256.38,7.35613 256.714,8.85613 256.5,10.5C 255.167,10.5 253.833,10.5 252.5,10.5C 253.984,9.52668 254.484,8.19334 254,6.5C 251.568,7.44963 249.068,7.44963 246.5,6.5 Z"/></g>
<g><path style="opacity:1" fill="#c1d7db" d="M 191.5,6.5 C 193.415,6.21552 195.081,6.54885 196.5,7.5C 193.168,11.6644 189.335,15.3311 185,18.5C 184.517,19.448 184.351,20.448 184.5,21.5C 182.856,19.9321 182.189,18.2654 182.5,16.5C 180.736,18.2776 178.736,19.6109 176.5,20.5C 180.892,15.1057 185.892,10.439 191.5,6.5 Z"/></g>
<g><path style="opacity:1" fill="#a8c6c9" d="M 244.5,6.5 C 244.158,7.33825 243.492,7.67158 242.5,7.5C 238.952,7.09491 235.619,7.59491 232.5,9C 235.882,9.17636 239.215,9.67636 242.5,10.5C 241.86,15.1165 241.527,19.7832 241.5,24.5C 241.508,29.2216 242.175,33.5549 243.5,37.5C 244.167,28.5 244.833,19.5 245.5,10.5C 245.5,20.1667 245.5,29.8333 245.5,39.5C 243.5,39.5 241.5,39.5 239.5,39.5C 239.5,29.8333 239.5,20.1667 239.5,10.5C 236.167,10.5 232.833,10.5 229.5,10.5C 229.5,9.16667 229.5,7.83333 229.5,6.5C 234.341,5.46821 239.341,5.46821 244.5,6.5 Z"/></g>
<g><path style="opacity:1" fill="#807d50" d="M 24.5,8.5 C 23.1172,16.0936 22.4505,23.7603 22.5,31.5C 21.5184,28.0381 21.185,24.3714 21.5,20.5C 21.185,16.6286 21.5184,12.9619 22.5,9.5C 23.1667,9.16667 23.8333,8.83333 24.5,8.5 Z"/></g>
<g><path style="opacity:1" fill="#ad8338" d="M 16.5,5.5 C 18.5,5.5 20.5,5.5 22.5,5.5C 22.5,6.83333 22.5,8.16667 22.5,9.5C 21.5184,12.9619 21.185,16.6286 21.5,20.5C 20.8333,24.1667 20.1667,27.8333 19.5,31.5C 18.8386,32.7175 18.1719,34.0508 17.5,35.5C 16.8333,34.1667 16.1667,32.8333 15.5,31.5C 14.5832,32.1272 13.5832,32.4606 12.5,32.5C 11.596,31.791 11.2627,30.791 11.5,29.5C 13.1667,29.5 14.8333,29.5 16.5,29.5C 16.6602,27.8008 16.4935,26.1341 16,24.5C 15.3333,25.1667 14.6667,25.8333 14,26.5C 13.5006,21.1771 13.334,15.8437 13.5,10.5C 13.953,8.43482 14.953,6.76815 16.5,5.5 Z"/></g>
<g><path style="opacity:1" fill="#c6dee0" d="M 379.5,24.5 C 378.265,24.2786 377.265,23.6119 376.5,22.5C 375.571,23.6888 375.238,25.0222 375.5,26.5C 371.445,26.8242 367.445,26.4909 363.5,25.5C 363.624,24.8933 363.957,24.56 364.5,24.5C 364.662,22.4727 364.495,20.4727 364,18.5C 363.26,20.3187 362.093,21.6521 360.5,22.5C 362.424,17.2274 364.258,11.8941 366,6.5C 368.279,5.41032 370.446,5.74366 372.5,7.5C 375.035,13.11 377.368,18.7766 379.5,24.5 Z M 364.5,24.5 C 365.117,24.3893 365.617,24.056 366,23.5C 366.592,19.7235 367.592,16.0569 369,12.5C 370.848,16.7295 372.681,20.8962 374.5,25C 370.973,25.8075 367.64,25.6408 364.5,24.5 Z"/></g>
<g><path style="opacity:1" fill="#cee5e7" d="M 203.5,6.5 C 206.221,9.89395 208.554,13.5606 210.5,17.5C 208.41,16.2092 207.076,16.8758 206.5,19.5C 203.601,16.0484 200.934,12.3817 198.5,8.5C 199.552,6.74395 201.219,6.07729 203.5,6.5 Z"/></g>
<g><path style="opacity:0.557" fill="#56723f" d="M 58.5,9.5 C 59.6291,11.6282 59.7958,13.9615 59,16.5C 55.5851,17.0491 51.7517,17.0491 47.5,16.5C 47.1667,16.5 46.8333,16.5 46.5,16.5C 46.7373,15.209 46.404,14.209 45.5,13.5C 45.5,12.8333 45.8333,12.5 46.5,12.5C 46.8333,12.5 47.1667,12.5 47.5,12.5C 50.175,10.8106 52.8417,10.4773 55.5,11.5C 56.791,11.7373 57.791,11.404 58.5,10.5C 58.5,10.1667 58.5,9.83333 58.5,9.5 Z"/></g>
<g><path style="opacity:1" fill="#999b49" d="M 55.5,11.5 C 55.5,12.8333 55.5,14.1667 55.5,15.5C 47.7944,14.8686 47.7944,13.5353 55.5,11.5 Z"/></g>
<g><path style="opacity:1" fill="#cbddde" d="M 174.5,6.5 C 174.5,11.8333 174.5,17.1667 174.5,22.5C 174.366,24.2915 174.699,25.9582 175.5,27.5C 175.5,31.5 175.5,35.5 175.5,39.5C 173.5,39.5 171.5,39.5 169.5,39.5C 169.333,28.495 169.5,17.495 170,6.5C 171.616,5.19914 173.116,5.19914 174.5,6.5 Z"/></g>
<g><path style="opacity:1" fill="#6a7450" d="M 72.5,18.5 C 71.0779,18.2504 70.0779,17.417 69.5,16C 68.1667,15.3333 66.8333,15.3333 65.5,16C 65.2625,18.2884 65.2625,20.7884 65.5,23.5C 66.2493,28.9112 67.2493,34.2445 68.5,39.5C 64.7735,31.5916 63.1068,23.2583 63.5,14.5C 68.3238,12.2186 71.3238,13.5519 72.5,18.5 Z"/></g>
<g><path style="opacity:1" fill="#c8dee1" d="M 223.5,6.5 C 225.099,6.23219 226.432,6.56552 227.5,7.5C 223.938,13.613 220.104,19.613 216,25.5C 215.826,30.3514 215.326,35.0181 214.5,39.5C 214.411,33.4557 214.411,27.6224 214.5,22C 213.207,21.51 211.873,21.3433 210.5,21.5C 210.5,20.1667 210.5,18.8333 210.5,17.5C 211.79,18.0577 212.623,19.0577 213,20.5C 216.298,15.5182 219.798,10.8515 223.5,6.5 Z"/></g>
<g><path style="opacity:0.486" fill="#8bb0b6" d="M 264.5,6.5 C 265.485,10.6344 265.818,14.9677 265.5,19.5C 270.833,19.5 276.167,19.5 281.5,19.5C 281.182,14.9677 281.515,10.6344 282.5,6.5C 282.5,11.1667 282.5,15.8333 282.5,20.5C 276.5,20.5 270.5,20.5 264.5,20.5C 264.5,17.1667 264.5,13.8333 264.5,10.5C 264.5,9.16667 264.5,7.83333 264.5,6.5 Z"/></g>
<g><path style="opacity:0.024" fill="#265963" d="M 311.5,20.5 C 308.167,20.5 304.833,20.5 301.5,20.5C 302.492,18.9735 303.992,18.3068 306,18.5C 308.221,18.3932 310.054,19.0598 311.5,20.5 Z"/></g>
<g><path style="opacity:1" fill="#cae0e2" d="M 341.5,6.5 C 350.166,7.48605 352.999,12.1527 350,20.5C 348.269,22.6166 346.102,24.1166 343.5,25C 345.758,26.7527 347.425,28.9193 348.5,31.5C 347.279,30.9717 346.113,30.305 345,29.5C 343.961,30.2438 343.461,31.2438 343.5,32.5C 341.527,29.8605 339.194,27.5272 336.5,25.5C 336.5,25.1667 336.5,24.8333 336.5,24.5C 340.024,24.1191 343.358,23.1191 346.5,21.5C 346,21.1667 345.5,20.8333 345,20.5C 343.862,20.9891 342.695,21.3225 341.5,21.5C 341.5,21.1667 341.5,20.8333 341.5,20.5C 345.483,18.8547 346.483,16.0213 344.5,12C 339.628,10.6115 334.628,10.1115 329.5,10.5C 329.167,10.5 328.833,10.5 328.5,10.5C 331.625,9.52056 334.958,9.18723 338.5,9.5C 340.792,9.24358 342.959,9.57692 345,10.5C 345.167,10.1667 345.333,9.83333 345.5,9.5C 344.099,8.47934 342.765,7.47934 341.5,6.5 Z"/></g>
<g><path style="opacity:0.522" fill="#71a3a8" d="M 328.5,10.5 C 328.833,10.5 329.167,10.5 329.5,10.5C 329.5,13.8333 329.5,17.1667 329.5,20.5C 333.528,19.3797 337.528,19.3797 341.5,20.5C 341.5,20.8333 341.5,21.1667 341.5,21.5C 336.968,21.8182 332.634,21.4849 328.5,20.5C 328.5,17.1667 328.5,13.8333 328.5,10.5 Z"/></g>
<g><path style="opacity:1" fill="#daecee" d="M 298.5,10.5 C 298.5,13.8333 298.5,17.1667 298.5,20.5C 299.5,20.5 300.5,20.5 301.5,20.5C 304.833,20.5 308.167,20.5 311.5,20.5C 312.93,20.5792 314.264,20.2458 315.5,19.5C 316.357,20.7357 317.023,22.069 317.5,23.5C 311.202,24.4963 304.868,24.8297 298.5,24.5C 297.256,19.7019 297.256,15.0352 298.5,10.5 Z"/></g>
<g><path style="opacity:1" fill="#e2f0f1" d="M 184.5,21.5 C 186.262,22.2623 187.262,23.5956 187.5,25.5C 187.539,26.5832 187.873,27.5832 188.5,28.5C 187.398,29.1757 186.398,29.8423 185.5,30.5C 183.53,28.3533 181.697,26.02 180,23.5C 178.629,25.0414 177.129,26.3747 175.5,27.5C 174.699,25.9582 174.366,24.2915 174.5,22.5C 175.5,22.1667 176.167,21.5 176.5,20.5C 178.736,19.6109 180.736,18.2776 182.5,16.5C 182.189,18.2654 182.856,19.9321 184.5,21.5 Z"/></g>
<g><path style="opacity:1" fill="#ecf6f6" d="M 210.5,17.5 C 210.5,18.8333 210.5,20.1667 210.5,21.5C 211.873,21.3433 213.207,21.51 214.5,22C 214.411,27.6224 214.411,33.4557 214.5,39.5C 212.801,39.6602 211.134,39.4935 209.5,39C 210.632,34.5868 210.799,30.0868 210,25.5C 208.579,23.5952 207.412,21.5952 206.5,19.5C 207.076,16.8758 208.41,16.2092 210.5,17.5 Z"/></g>
<g><path style="opacity:1" fill="#998146" d="M 94.5,25.5 C 93.2223,25.7822 92.2223,26.4489 91.5,27.5C 91.0296,26.3065 90.0296,25.6399 88.5,25.5C 87.5,25.8333 86.5,26.1667 85.5,26.5C 84.2919,29.3405 82.9586,32.0072 81.5,34.5C 82.1495,32.5648 82.4828,30.5648 82.5,28.5C 84.3053,24.2271 86.6386,20.2271 89.5,16.5C 92.4212,15.5934 95.4212,15.2601 98.5,15.5C 97.752,19.0065 96.4186,22.3398 94.5,25.5 Z"/></g>
<g><path style="opacity:1" fill="#ac823a" d="M 91.5,27.5 C 89.9402,29.9535 88.9402,32.6202 88.5,35.5C 87.4168,35.4606 86.4168,35.1272 85.5,34.5C 84.1667,36.5 82.8333,38.5 81.5,40.5C 80.6143,39.675 80.281,38.675 80.5,37.5C 81.1098,36.609 81.4431,35.609 81.5,34.5C 82.9586,32.0072 84.2919,29.3405 85.5,26.5C 86.5,26.1667 87.5,25.8333 88.5,25.5C 90.0296,25.6399 91.0296,26.3065 91.5,27.5 Z"/></g>
<g><path style="opacity:1" fill="#f4fdfd" d="M 364.5,24.5 C 363.957,24.56 363.624,24.8933 363.5,25.5C 367.445,26.4909 371.445,26.8242 375.5,26.5C 375.238,25.0222 375.571,23.6888 376.5,22.5C 377.265,23.6119 378.265,24.2786 379.5,24.5C 379.5,24.8333 379.5,25.1667 379.5,25.5C 379.5,26.8333 379.5,28.1667 379.5,29.5C 378.167,29.5 376.833,29.5 375.5,29.5C 371.167,29.5 366.833,29.5 362.5,29.5C 361.414,29.38 360.747,28.7133 360.5,27.5C 361.807,25.8182 361.807,24.1516 360.5,22.5C 362.093,21.6521 363.26,20.3187 364,18.5C 364.495,20.4727 364.662,22.4727 364.5,24.5 Z"/></g>
<g><path style="opacity:1" fill="#c1dadd" d="M 360.5,22.5 C 361.807,24.1516 361.807,25.8182 360.5,27.5C 360.747,28.7133 361.414,29.38 362.5,29.5C 362.099,33.4049 360.766,36.7382 358.5,39.5C 358.5,37.8333 358.5,36.1667 358.5,34.5C 357.5,34.5 356.5,34.5 355.5,34.5C 356.796,30.2613 358.462,26.2613 360.5,22.5 Z"/></g>
<g><path style="opacity:1" fill="#a8843e" d="M 72.5,18.5 C 72.6911,23.4075 73.6911,28.0742 75.5,32.5C 74.5041,32.5858 73.6708,32.2524 73,31.5C 72.0071,27.5577 71.3404,23.5577 71,19.5C 70.5172,20.448 70.3505,21.448 70.5,22.5C 69.5,22.5 68.5,22.5 67.5,22.5C 67.5,23.5 67.5,24.5 67.5,25.5C 66.8333,24.8333 66.1667,24.1667 65.5,23.5C 65.2625,20.7884 65.2625,18.2884 65.5,16C 66.8333,15.3333 68.1667,15.3333 69.5,16C 70.0779,17.417 71.0779,18.2504 72.5,18.5 Z"/></g>
<g><path style="opacity:1" fill="#b4cfd2" d="M 264.5,6.5 C 264.5,7.83333 264.5,9.16667 264.5,10.5C 263.849,9.90935 263.182,9.24269 262.5,8.5C 261.167,18.1667 261.167,27.8333 262.5,37.5C 263.167,33.0178 263.834,28.6845 264.5,24.5C 264.5,29.5 264.5,34.5 264.5,39.5C 262.833,39.5 261.167,39.5 259.5,39.5C 259.168,28.4798 259.501,17.4798 260.5,6.5C 261.995,5.29473 263.328,5.29473 264.5,6.5 Z"/></g>
<g><path style="opacity:1" fill="#fcfefc" d="M 264.5,10.5 C 264.5,13.8333 264.5,17.1667 264.5,20.5C 264.5,21.5 264.5,22.5 264.5,23.5C 264.5,23.8333 264.5,24.1667 264.5,24.5C 263.834,28.6845 263.167,33.0178 262.5,37.5C 261.167,27.8333 261.167,18.1667 262.5,8.5C 263.182,9.24269 263.849,9.90935 264.5,10.5 Z"/></g>
<g><path style="opacity:1" fill="#fbfdfc" d="M 325.5,20.5 C 326.5,20.5 327.5,20.5 328.5,20.5C 332.634,21.4849 336.968,21.8182 341.5,21.5C 342.695,21.3225 343.862,20.9891 345,20.5C 345.5,20.8333 346,21.1667 346.5,21.5C 343.358,23.1191 340.024,24.1191 336.5,24.5C 333.615,24.1936 330.948,24.5269 328.5,25.5C 327.834,29.3525 327.167,33.3525 326.5,37.5C 325.505,31.8722 325.171,26.2055 325.5,20.5 Z"/></g>
<g><path style="opacity:0.369" fill="#729ea6" d="M 336.5,24.5 C 336.5,24.8333 336.5,25.1667 336.5,25.5C 334.167,25.5 331.833,25.5 329.5,25.5C 329.819,30.3633 329.486,35.03 328.5,39.5C 328.5,34.8333 328.5,30.1667 328.5,25.5C 330.948,24.5269 333.615,24.1936 336.5,24.5 Z"/></g>
<g><path style="opacity:1" fill="#ae8136" d="M 75.5,32.5 C 75.1201,34.698 75.7868,36.3646 77.5,37.5C 78.927,40.569 78.0937,41.569 75,40.5C 72.9112,37.3291 70.5779,34.3291 68,31.5C 67.5045,29.5273 67.3379,27.5273 67.5,25.5C 67.5,24.5 67.5,23.5 67.5,22.5C 68.5,22.5 69.5,22.5 70.5,22.5C 70.3505,21.448 70.5172,20.448 71,19.5C 71.3404,23.5577 72.0071,27.5577 73,31.5C 73.6708,32.2524 74.5041,32.5858 75.5,32.5 Z"/></g>
<g><path style="opacity:0.69" fill="#5f7254" d="M 48.5,25.5 C 48.4032,29.8471 47.4032,33.8471 45.5,37.5C 45.3082,33.0981 46.3082,29.0981 48.5,25.5 Z"/></g>
<g><path style="opacity:0.745" fill="#697555" d="M 94.5,25.5 C 92.8627,29.1178 90.8627,32.4512 88.5,35.5C 88.9402,32.6202 89.9402,29.9535 91.5,27.5C 92.2223,26.4489 93.2223,25.7822 94.5,25.5 Z"/></g>
<g><path style="opacity:1" fill="#4f6a57" d="M 124.5,27.5 C 125.209,26.596 126.209,26.2627 127.5,26.5C 127.471,29.7732 128.804,30.4398 131.5,28.5C 133.036,29.2485 134.369,30.2485 135.5,31.5C 137.409,28.4291 139.409,28.0958 141.5,30.5C 140.512,35.6405 140.179,40.9738 140.5,46.5C 139.674,41.6835 139.174,36.6835 139,31.5C 137.522,34.1579 136.355,36.8245 135.5,39.5C 135.5,41.8333 135.5,44.1667 135.5,46.5C 134.178,46.67 133.011,46.3366 132,45.5C 131.793,41.9106 131.293,38.4106 130.5,35C 131.654,34.0862 131.487,33.2529 130,32.5C 129.722,33.4158 129.222,34.0825 128.5,34.5C 127.603,31.7873 126.27,29.454 124.5,27.5 Z"/></g>
<g><path style="opacity:0.575" fill="#85b3bb" d="M 264.5,23.5 C 270.5,23.5 276.5,23.5 282.5,23.5C 282.5,28.8333 282.5,34.1667 282.5,39.5C 281.513,34.6946 281.179,29.6946 281.5,24.5C 276.167,24.5 270.833,24.5 265.5,24.5C 265.821,29.6946 265.487,34.6946 264.5,39.5C 264.5,34.5 264.5,29.5 264.5,24.5C 264.5,24.1667 264.5,23.8333 264.5,23.5 Z"/></g>
<g><path style="opacity:1" fill="#c9dfe2" d="M 379.5,25.5 C 381.692,29.4124 383.692,33.4124 385.5,37.5C 385.5,38.1667 385.5,38.8333 385.5,39.5C 383.473,39.6621 381.473,39.4955 379.5,39C 378.254,35.7515 376.921,32.5848 375.5,29.5C 376.833,29.5 378.167,29.5 379.5,29.5C 379.5,28.1667 379.5,26.8333 379.5,25.5 Z"/></g>
<g><path style="opacity:1" fill="#a08547" d="M 12.5,10.5 C 12.8333,10.5 13.1667,10.5 13.5,10.5C 13.334,15.8437 13.5006,21.1771 14,26.5C 14.6667,25.8333 15.3333,25.1667 16,24.5C 16.4935,26.1341 16.6602,27.8008 16.5,29.5C 14.8333,29.5 13.1667,29.5 11.5,29.5C 11.2627,30.791 11.596,31.791 12.5,32.5C 12.5,34.1667 12.5,35.8333 12.5,37.5C 11.5064,46.6517 11.1731,55.985 11.5,65.5C 12.1495,67.4352 12.4828,69.4352 12.5,71.5C 11.8333,70.8333 11.1667,70.1667 10.5,69.5C 10.5,69.1667 10.5,68.8333 10.5,68.5C 10.5,57.5 10.5,46.5 10.5,35.5C 8.14316,35.6633 5.80982,35.4966 3.5,35C 6.27491,33.6265 8.60824,31.7932 10.5,29.5C 11.6061,23.2121 12.2727,16.8788 12.5,10.5 Z"/></g>
<g><path style="opacity:1" fill="#918049" d="M 21.5,20.5 C 21.185,24.3714 21.5184,28.0381 22.5,31.5C 22.5,33.1667 22.5,34.8333 22.5,36.5C 22.9142,50.0103 22.9142,63.3437 22.5,76.5C 22.1667,76.5 21.8333,76.5 21.5,76.5C 21.5,75.8333 21.5,75.1667 21.5,74.5C 21.7825,69.0735 21.4491,63.7401 20.5,58.5C 20.2996,49.4939 19.9662,40.4939 19.5,31.5C 20.1667,27.8333 20.8333,24.1667 21.5,20.5 Z"/></g>
<g><path style="opacity:0.973" fill="#797b50" d="M 22.5,36.5 C 22.5,34.8333 22.5,33.1667 22.5,31.5C 28.2838,31.7925 33.9504,31.1258 39.5,29.5C 40.91,29.8678 41.91,30.7011 42.5,32C 40.9739,33.8871 38.9739,34.8871 36.5,35C 31.8984,36.1224 27.2318,36.6224 22.5,36.5 Z"/></g>
<g><path style="opacity:1" fill="#d6e9eb" d="M 187.5,25.5 C 191.055,29.5843 194.389,33.9176 197.5,38.5C 195.235,39.6474 192.902,39.8141 190.5,39C 188.936,36.0292 187.27,33.1959 185.5,30.5C 186.398,29.8423 187.398,29.1757 188.5,28.5C 187.873,27.5832 187.539,26.5832 187.5,25.5 Z"/></g>
<g><path style="opacity:1" fill="#d8ebee" d="M 348.5,31.5 C 350.314,33.7641 352.147,36.0975 354,38.5C 354.41,37.0993 354.91,35.766 355.5,34.5C 356.5,34.5 357.5,34.5 358.5,34.5C 358.5,36.1667 358.5,37.8333 358.5,39.5C 354.818,39.6653 351.152,39.4986 347.5,39C 345.768,37.0281 344.435,34.8614 343.5,32.5C 343.461,31.2438 343.961,30.2438 345,29.5C 346.113,30.305 347.279,30.9717 348.5,31.5 Z"/></g>
<g><path style="opacity:1" fill="#ae8239" d="M 53.5,37.5 C 53.5,38.1667 53.5,38.8333 53.5,39.5C 51.8583,41.0808 49.8583,41.7475 47.5,41.5C 48.0071,36.4739 48.6737,31.4739 49.5,26.5C 50.8333,26.5 52.1667,26.5 53.5,26.5C 53.5,30.1667 53.5,33.8333 53.5,37.5 Z"/></g>
<g><path style="opacity:1" fill="#8f7f4a" d="M 72.5,18.5 C 74.9336,23.613 77.1002,28.9463 79,34.5C 79.941,32.2726 81.1077,30.2726 82.5,28.5C 82.4828,30.5648 82.1495,32.5648 81.5,34.5C 81.4431,35.609 81.1098,36.609 80.5,37.5C 79.5,37.5 78.5,37.5 77.5,37.5C 75.7868,36.3646 75.1201,34.698 75.5,32.5C 73.6911,28.0742 72.6911,23.4075 72.5,18.5 Z"/></g>
<g><path style="opacity:1" fill="#978449" d="M 124.5,27.5 C 126.27,29.454 127.603,31.7873 128.5,34.5C 128.672,35.4916 128.338,36.1583 127.5,36.5C 126.883,36.6107 126.383,36.944 126,37.5C 125.667,39.5 125.333,41.5 125,43.5C 124.501,38.1771 124.334,32.8437 124.5,27.5 Z"/></g>
<g><path style="opacity:1" fill="#d6e9ea" d="M 294.5,6.5 C 294.503,13.5327 295.003,20.5327 296,27.5C 296.236,25.8807 297.069,24.8807 298.5,24.5C 298.5,28.1667 298.5,31.8333 298.5,35.5C 305.405,35.1531 312.405,35.1531 319.5,35.5C 319.5,36.8333 319.5,38.1667 319.5,39.5C 310.5,39.5 301.5,39.5 292.5,39.5C 292.632,28.8377 292.632,18.3377 292.5,8C 293.044,7.28281 293.711,6.78281 294.5,6.5 Z"/></g>
<g><path style="opacity:1" fill="#a5833e" d="M 65.5,23.5 C 66.1667,24.1667 66.8333,24.8333 67.5,25.5C 67.3379,27.5273 67.5045,29.5273 68,31.5C 70.5779,34.3291 72.9112,37.3291 75,40.5C 78.0937,41.569 78.927,40.569 77.5,37.5C 78.5,37.5 79.5,37.5 80.5,37.5C 80.281,38.675 80.6143,39.675 81.5,40.5C 82.8333,38.5 84.1667,36.5 85.5,34.5C 86.4168,35.1272 87.4168,35.4606 88.5,35.5C 87.6743,38.4848 86.341,41.1515 84.5,43.5C 83.3509,43.7911 82.6842,44.6244 82.5,46C 83.0767,48.137 83.41,50.3037 83.5,52.5C 81.9464,50.1079 80.6131,47.4412 79.5,44.5C 78.6406,43.2258 77.9739,43.3925 77.5,45C 78.5472,46.5777 78.5472,48.0777 77.5,49.5C 76.5713,48.3112 76.238,46.9778 76.5,45.5C 71.9831,44.9689 71.3165,46.3023 74.5,49.5C 72.7798,50.3077 71.1131,51.3077 69.5,52.5C 70.6148,50.6931 71.2814,48.6931 71.5,46.5C 71.445,43.6402 70.445,41.3069 68.5,39.5C 67.2493,34.2445 66.2493,28.9112 65.5,23.5 Z"/></g>
<g><path style="opacity:0.11" fill="#2d605c" d="M 142.5,32.5 C 143.165,34.6979 143.832,37.0312 144.5,39.5C 145.172,38.0508 145.839,36.7175 146.5,35.5C 146.264,38.6085 146.597,41.6085 147.5,44.5C 146.878,46.9558 145.378,48.6225 143,49.5C 141.251,49.2517 140.418,48.2517 140.5,46.5C 141.117,46.6107 141.617,46.944 142,47.5C 142.499,42.5111 142.666,37.5111 142.5,32.5 Z"/></g>
<g><path style="opacity:1" fill="#988550" d="M 156.5,31.5 C 157.13,35.0044 157.797,38.5044 158.5,42C 156.771,43.7889 156.104,45.9556 156.5,48.5C 156.672,49.4916 156.338,50.1583 155.5,50.5C 154.425,51.5624 153.425,51.5624 152.5,50.5C 152.999,48.109 153.332,45.7756 153.5,43.5C 153.303,39.9886 153.636,36.3219 154.5,32.5C 154.842,31.6618 155.508,31.3284 156.5,31.5 Z"/></g>
<g><path style="opacity:1" fill="#657352" d="M 154.5,32.5 C 153.636,36.3219 153.303,39.9886 153.5,43.5C 153.332,45.7756 152.999,48.109 152.5,50.5C 153.425,51.5624 154.425,51.5624 155.5,50.5C 154.327,53.7537 151.994,54.9204 148.5,54C 146.012,50.5517 146.678,47.5517 150.5,45C 149.552,44.5172 148.552,44.3505 147.5,44.5C 146.597,41.6085 146.264,38.6085 146.5,35.5C 145.756,32.0504 147.09,30.3838 150.5,30.5C 150.335,33.5184 150.502,36.5184 151,39.5C 152.213,37.0748 153.379,34.7415 154.5,32.5 Z"/></g>
<g><path style="opacity:0.004" fill="#000000" d="M 128.5,40.5 C 129.525,40.8966 129.692,41.5632 129,42.5C 128.536,41.9056 128.369,41.2389 128.5,40.5 Z"/></g>
<g><path style="opacity:1" fill="#8e8653" d="M 135.5,39.5 C 134.837,41.0419 134.17,42.7086 133.5,44.5C 132.339,40.2047 132.172,35.8713 133,31.5C 135.203,33.6688 136.036,36.3354 135.5,39.5 Z"/></g>
<g><path style="opacity:1" fill="#ab833b" d="M 19.5,31.5 C 19.9662,40.4939 20.2996,49.4939 20.5,58.5C 19.6367,53.9813 18.8034,49.3146 18,44.5C 17.6124,51.4769 17.4458,58.3103 17.5,65C 19.8164,67.1523 20.1498,69.6523 18.5,72.5C 19.0047,73.9185 20.0047,74.5852 21.5,74.5C 21.5,75.1667 21.5,75.8333 21.5,76.5C 18.8127,76.6641 16.146,76.4974 13.5,76C 12.6198,74.6439 12.2865,73.1439 12.5,71.5C 12.4828,69.4352 12.1495,67.4352 11.5,65.5C 12.1174,65.6107 12.6174,65.944 13,66.5C 13.4974,69.146 13.6641,71.8127 13.5,74.5C 14.5,74.5 15.5,74.5 16.5,74.5C 15.1744,66.8525 13.841,59.1858 12.5,51.5C 12.4519,47.4794 13.4519,43.8127 15.5,40.5C 14.9017,39.2054 14.4017,37.8721 14,36.5C 13.6174,37.056 13.1174,37.3893 12.5,37.5C 12.5,35.8333 12.5,34.1667 12.5,32.5C 13.5832,32.4606 14.5832,32.1272 15.5,31.5C 16.1667,32.8333 16.8333,34.1667 17.5,35.5C 18.1719,34.0508 18.8386,32.7175 19.5,31.5 Z"/></g>
<g><path style="opacity:1" fill="#6d7a59" d="M 124.5,27.5 C 124.334,32.8437 124.501,38.1771 125,43.5C 125.333,41.5 125.667,39.5 126,37.5C 126.383,36.944 126.883,36.6107 127.5,36.5C 127.058,40.1545 126.724,43.8212 126.5,47.5C 125.178,47.67 124.011,47.3366 123,46.5C 122.159,39.924 122.659,33.5907 124.5,27.5 Z"/></g>
<g><path style="opacity:0.706" fill="#4f6d58" d="M 156.5,48.5 C 156.104,45.9556 156.771,43.7889 158.5,42C 157.797,38.5044 157.13,35.0044 156.5,31.5C 156.81,30.2617 157.31,30.2617 158,31.5C 158.497,33.8098 158.663,36.1432 158.5,38.5C 159.5,38.5 160.5,38.5 161.5,38.5C 159.791,41.8574 158.125,45.1908 156.5,48.5 Z"/></g>
<g><path style="opacity:0.422" fill="#566d55" d="M 12.5,10.5 C 12.2727,16.8788 11.6061,23.2121 10.5,29.5C 8.60824,31.7932 6.27491,33.6265 3.5,35C 5.80982,35.4966 8.14316,35.6633 10.5,35.5C 10.5,46.5 10.5,57.5 10.5,68.5C 9.50558,58.0131 9.17225,47.3464 9.5,36.5C 6.11477,37.628 2.78144,37.628 -0.5,36.5C -0.5,35.8333 -0.5,35.1667 -0.5,34.5C 2.35607,32.9066 5.35607,31.5733 8.5,30.5C 9.83996,23.7061 11.1733,17.0395 12.5,10.5 Z"/></g>
<g><path style="opacity:1" fill="#a08646" d="M 48.5,25.5 C 50.5,25.5 52.5,25.5 54.5,25.5C 54.5,28.8333 54.5,32.1667 54.5,35.5C 54.5,36.1667 54.5,36.8333 54.5,37.5C 54.1667,37.5 53.8333,37.5 53.5,37.5C 53.5,33.8333 53.5,30.1667 53.5,26.5C 52.1667,26.5 50.8333,26.5 49.5,26.5C 48.6737,31.4739 48.0071,36.4739 47.5,41.5C 49.8583,41.7475 51.8583,41.0808 53.5,39.5C 53.5,46.1667 53.5,52.8333 53.5,59.5C 52.5,59.5 51.5,59.5 50.5,59.5C 53.4546,53.8098 52.9546,48.4764 49,43.5C 47.2722,45.852 46.4388,48.5187 46.5,51.5C 47.2308,56.1405 47.5641,60.8072 47.5,65.5C 46.6909,63.7078 46.1909,61.7078 46,59.5C 45.5003,52.1742 45.3337,44.8409 45.5,37.5C 47.4032,33.8471 48.4032,29.8471 48.5,25.5 Z"/></g>
<g><path style="opacity:0.925" fill="#898358" d="M 141.5,30.5 C 142.338,30.8417 142.672,31.5084 142.5,32.5C 142.666,37.5111 142.499,42.5111 142,47.5C 141.617,46.944 141.117,46.6107 140.5,46.5C 140.179,40.9738 140.512,35.6405 141.5,30.5 Z"/></g>
<g><path style="opacity:0.904" fill="#5d6d51" d="M 45.5,37.5 C 45.3337,44.8409 45.5003,52.1742 46,59.5C 46.1909,61.7078 46.6909,63.7078 47.5,65.5C 48.9336,68.0472 50.6002,70.3805 52.5,72.5C 52.5,72.8333 52.5,73.1667 52.5,73.5C 50.629,73.1412 49.129,72.1412 48,70.5C 43.1549,59.6829 42.3215,48.6829 45.5,37.5 Z"/></g>
<g><path style="opacity:1" fill="#cfe2e5" d="M 306.5,61.5 C 305.704,59.1643 304.038,57.831 301.5,57.5C 301.738,54.8517 303.072,53.0183 305.5,52C 312.528,49.1814 318.694,50.3481 324,55.5C 325.128,57.3453 325.628,59.3453 325.5,61.5C 323.712,61.7852 322.045,61.4519 320.5,60.5C 319.151,56.8213 316.484,55.1546 312.5,55.5C 308.158,55.1757 306.158,57.1757 306.5,61.5 Z"/></g>
<g><path style="opacity:1" fill="#ad8335" d="M 74.5,49.5 C 75.8571,50.5903 76.8571,51.9236 77.5,53.5C 78.6664,55.166 78.6664,56.8327 77.5,58.5C 75.2262,58.0298 73.2262,57.0298 71.5,55.5C 70.7025,55.9569 70.3691,56.6236 70.5,57.5C 68.9519,57.1788 68.2852,56.1788 68.5,54.5C 68.3284,53.5084 68.6618,52.8417 69.5,52.5C 71.1131,51.3077 72.7798,50.3077 74.5,49.5 Z"/></g>
<g><path style="opacity:1" fill="#717952" d="M 84.5,43.5 C 84.3379,45.5273 84.5045,47.5273 85,49.5C 87.1235,54.0761 88.9569,58.7427 90.5,63.5C 89.2719,62.6935 88.2719,61.6935 87.5,60.5C 87.1039,57.279 85.7705,54.6123 83.5,52.5C 83.41,50.3037 83.0767,48.137 82.5,46C 82.6842,44.6244 83.3509,43.7911 84.5,43.5 Z"/></g>
<g><path style="opacity:1" fill="#d0dee1" d="M 183.5,55.5 C 183.167,55.5 182.833,55.5 182.5,55.5C 181.5,55.5 180.5,55.5 179.5,55.5C 179.167,55.5 178.833,55.5 178.5,55.5C 174.833,55.5 171.167,55.5 167.5,55.5C 167.286,53.8561 167.62,52.3561 168.5,51C 177.167,50.3333 185.833,50.3333 194.5,51C 194.966,52.2988 194.966,53.7988 194.5,55.5C 190.833,55.5 187.167,55.5 183.5,55.5 Z"/></g>
<g><path style="opacity:1" fill="#f7fefe" d="M 213.5,51.5 C 214.5,51.5 215.5,51.5 216.5,51.5C 216.953,52.4584 217.619,53.2917 218.5,54C 213.316,54.1739 208.316,54.6739 203.5,55.5C 201.78,57.6581 200.947,60.3248 201,63.5C 200.722,62.5842 200.222,61.9175 199.5,61.5C 199.5,58.1667 199.5,54.8333 199.5,51.5C 204.167,51.5 208.833,51.5 213.5,51.5 Z"/></g>
<g><path style="opacity:1" fill="#ad823a" d="M 83.5,52.5 C 85.7705,54.6123 87.1039,57.279 87.5,60.5C 86.9342,64.8057 86.2675,65.139 85.5,61.5C 81.0438,61.1038 80.7105,60.1038 84.5,58.5C 83.3112,57.5713 81.9778,57.238 80.5,57.5C 80.5,56.1667 80.5,54.8333 80.5,53.5C 79.5,53.5 78.5,53.5 77.5,53.5C 76.8571,51.9236 75.8571,50.5903 74.5,49.5C 71.3165,46.3023 71.9831,44.9689 76.5,45.5C 76.238,46.9778 76.5713,48.3112 77.5,49.5C 78.5472,48.0777 78.5472,46.5777 77.5,45C 77.9739,43.3925 78.6406,43.2258 79.5,44.5C 80.6131,47.4412 81.9464,50.1079 83.5,52.5 Z"/></g>
<g><path style="opacity:1" fill="#ab833a" d="M 53.5,59.5 C 53.3354,62.5184 53.502,65.5184 54,68.5C 55.0195,69.6872 56.1861,70.6872 57.5,71.5C 58.6086,70.4104 59.6086,70.4104 60.5,71.5C 57.9135,72.48 55.2469,72.8134 52.5,72.5C 50.6002,70.3805 48.9336,68.0472 47.5,65.5C 47.5641,60.8072 47.2308,56.1405 46.5,51.5C 46.4388,48.5187 47.2722,45.852 49,43.5C 52.9546,48.4764 53.4546,53.8098 50.5,59.5C 51.5,59.5 52.5,59.5 53.5,59.5 Z"/></g>
<g><path style="opacity:0.996" fill="#d3ebec" d="M 275.5,51.5 C 277.167,51.5 278.833,51.5 280.5,51.5C 280.5,61.1667 280.5,70.8333 280.5,80.5C 285.833,80.5 291.167,80.5 296.5,80.5C 296.33,81.8221 296.663,82.9887 297.5,84C 290.174,84.4997 282.841,84.6663 275.5,84.5C 275.5,73.5 275.5,62.5 275.5,51.5 Z"/></g>
<g><path style="opacity:1" fill="#737a55" d="M 68.5,39.5 C 70.445,41.3069 71.445,43.6402 71.5,46.5C 71.2814,48.6931 70.6148,50.6931 69.5,52.5C 68.6618,52.8417 68.3284,53.5084 68.5,54.5C 66.9925,56.1815 65.9925,58.1815 65.5,60.5C 64.1667,62.5 62.8333,64.5 61.5,66.5C 61.1667,66.5 60.8333,66.5 60.5,66.5C 63.0488,60.4008 65.8821,54.4008 69,48.5C 69.4954,45.4686 69.3287,42.4686 68.5,39.5 Z"/></g>
<g><path style="opacity:1" fill="#a8833d" d="M 77.5,53.5 C 78.5,53.5 79.5,53.5 80.5,53.5C 80.5,54.8333 80.5,56.1667 80.5,57.5C 81.9778,57.238 83.3112,57.5713 84.5,58.5C 80.7105,60.1038 81.0438,61.1038 85.5,61.5C 86.2675,65.139 86.9342,64.8057 87.5,60.5C 88.2719,61.6935 89.2719,62.6935 90.5,63.5C 90.8897,66.8394 91.3897,70.1727 92,73.5C 92.6543,72.3044 93.1543,72.3044 93.5,73.5C 92.6667,73.8333 91.8333,74.1667 91,74.5C 88.9274,73.2516 86.7607,72.2516 84.5,71.5C 83.4258,67.0152 81.0925,63.3485 77.5,60.5C 76.8933,60.6236 76.56,60.9569 76.5,61.5C 76.5,62.1667 76.1667,62.5 75.5,62.5C 74.8333,62.5 74.1667,62.5 73.5,62.5C 73.1788,60.9519 72.1788,60.2852 70.5,60.5C 70.5,59.5 70.5,58.5 70.5,57.5C 70.3691,56.6236 70.7025,55.9569 71.5,55.5C 73.2262,57.0298 75.2262,58.0298 77.5,58.5C 78.6664,56.8327 78.6664,55.166 77.5,53.5 Z"/></g>
<g><path style="opacity:1" fill="#d8e9ec" d="M 216.5,51.5 C 224.287,52.3775 227.12,56.7108 225,64.5C 224.722,65.4158 224.222,66.0825 223.5,66.5C 221.801,66.6602 220.134,66.4935 218.5,66C 220.107,64.951 220.773,63.451 220.5,61.5C 220.548,58.7081 219.215,56.8747 216.5,56C 212.179,55.501 207.846,55.3343 203.5,55.5C 208.316,54.6739 213.316,54.1739 218.5,54C 217.619,53.2917 216.953,52.4584 216.5,51.5 Z"/></g>
<g><path style="opacity:1" fill="#af8136" d="M 11.5,65.5 C 11.1731,55.985 11.5064,46.6517 12.5,37.5C 13.1174,37.3893 13.6174,37.056 14,36.5C 14.4017,37.8721 14.9017,39.2054 15.5,40.5C 13.4519,43.8127 12.4519,47.4794 12.5,51.5C 13.841,59.1858 15.1744,66.8525 16.5,74.5C 15.5,74.5 14.5,74.5 13.5,74.5C 13.6641,71.8127 13.4974,69.146 13,66.5C 12.6174,65.944 12.1174,65.6107 11.5,65.5 Z"/></g>
<g><path style="opacity:1" fill="#ac8338" d="M 20.5,58.5 C 21.4491,63.7401 21.7825,69.0735 21.5,74.5C 20.0047,74.5852 19.0047,73.9185 18.5,72.5C 20.1498,69.6523 19.8164,67.1523 17.5,65C 17.4458,58.3103 17.6124,51.4769 18,44.5C 18.8034,49.3146 19.6367,53.9813 20.5,58.5 Z"/></g>
<g><path style="opacity:1" fill="#dceeef" d="M 252.5,67.5 C 251.5,67.5 250.5,67.5 249.5,67.5C 249.768,69.099 249.434,70.4324 248.5,71.5C 248.5,71.1667 248.5,70.8333 248.5,70.5C 247.216,67.5982 246.216,64.5982 245.5,61.5C 245.672,60.5084 245.338,59.8417 244.5,59.5C 244.5,59.1667 244.5,58.8333 244.5,58.5C 244.5,58.1667 244.5,57.8333 244.5,57.5C 243.54,55.5393 242.207,53.8726 240.5,52.5C 242.56,51.1888 244.726,51.1888 247,52.5C 248.939,57.4852 250.772,62.4852 252.5,67.5 Z"/></g>
<g><path style="opacity:1" fill="#f8fefe" d="M 280.5,80.5 C 285.017,81.1665 289.683,81.8331 294.5,82.5C 288.612,83.8074 282.779,83.8074 277,82.5C 276.168,72.8161 276.335,63.1495 277.5,53.5C 277.85,62.8708 278.85,71.8708 280.5,80.5 Z"/></g>
<g><path style="opacity:0.771" fill="#9abbbf" d="M 178.5,55.5 C 178.833,55.5 179.167,55.5 179.5,55.5C 179.5,64.5 179.5,73.5 179.5,82.5C 180.5,82.5 181.5,82.5 182.5,82.5C 182.5,73.5 182.5,64.5 182.5,55.5C 182.833,55.5 183.167,55.5 183.5,55.5C 183.414,56.4959 183.748,57.3292 184.5,58C 183.821,67.1661 183.154,76.3327 182.5,85.5C 181.5,85.5 180.5,85.5 179.5,85.5C 178.909,84.8485 178.243,84.1818 177.5,83.5C 177.185,74.0703 177.519,64.737 178.5,55.5 Z"/></g>
<g><path style="opacity:1" fill="#f6fefe" d="M 179.5,55.5 C 180.5,55.5 181.5,55.5 182.5,55.5C 182.5,64.5 182.5,73.5 182.5,82.5C 181.5,82.5 180.5,82.5 179.5,82.5C 179.5,73.5 179.5,64.5 179.5,55.5 Z"/></g>
<g><path style="opacity:0.239" fill="#3d676a" d="M 244.5,57.5 C 244.5,57.8333 244.5,58.1667 244.5,58.5C 243.167,58.8333 243.167,59.1667 244.5,59.5C 245.338,59.8417 245.672,60.5084 245.5,61.5C 244.167,61.5 242.833,61.5 241.5,61.5C 241.554,59.368 242.554,58.0347 244.5,57.5 Z"/></g>
<g><path style="opacity:1" fill="#b2cccd" d="M 262.5,51.5 C 264.5,51.5 266.5,51.5 268.5,51.5C 268.5,62.5 268.5,73.5 268.5,84.5C 266.5,84.5 264.5,84.5 262.5,84.5C 262.5,73.5 262.5,62.5 262.5,51.5 Z"/></g>
<g><path style="opacity:1" fill="#fafffe" d="M 264.5,52.5 C 265.823,55.9377 266.49,59.771 266.5,64C 266.15,69.9998 265.983,75.8332 266,81.5C 264.528,71.9997 264.028,62.333 264.5,52.5 Z"/></g>
<g><path style="opacity:1" fill="#d9ebed" d="M 301.5,57.5 C 304.038,57.831 305.704,59.1643 306.5,61.5C 312.812,63.6654 318.978,66.332 325,69.5C 327.537,74.6054 326.704,78.9387 322.5,82.5C 321.5,82.5 320.5,82.5 319.5,82.5C 319.5,81.5 319.5,80.5 319.5,79.5C 321.248,77.8401 321.748,75.8401 321,73.5C 315.759,70.8083 310.259,68.6416 304.5,67C 300.932,64.4232 299.932,61.2565 301.5,57.5 Z"/></g>
<g><path style="opacity:1" fill="#ad8238" d="M 68.5,54.5 C 68.2852,56.1788 68.9519,57.1788 70.5,57.5C 70.5,58.5 70.5,59.5 70.5,60.5C 72.1788,60.2852 73.1788,60.9519 73.5,62.5C 73.3964,64.7028 72.7298,66.7028 71.5,68.5C 69.5161,67.381 67.6828,67.7144 66,69.5C 64.9412,69.3699 64.1079,68.8699 63.5,68C 65.5212,67.5988 66.8545,66.4321 67.5,64.5C 66.1468,63.4763 65.4802,62.143 65.5,60.5C 65.9925,58.1815 66.9925,56.1815 68.5,54.5 Z"/></g>
<g><path style="opacity:1" fill="#d3e5e8" d="M 240.5,52.5 C 242.207,53.8726 243.54,55.5393 244.5,57.5C 242.554,58.0347 241.554,59.368 241.5,61.5C 240.929,64.4769 239.929,67.3103 238.5,70C 241.817,70.4983 245.15,70.665 248.5,70.5C 248.5,70.8333 248.5,71.1667 248.5,71.5C 245.15,71.335 241.817,71.5017 238.5,72C 237.402,72.7697 237.402,73.603 238.5,74.5C 236.658,76.1898 235.325,78.1898 234.5,80.5C 234.662,78.4727 234.495,76.4727 234,74.5C 233.617,73.944 233.117,73.6107 232.5,73.5C 234.796,66.2685 237.462,59.2685 240.5,52.5 Z"/></g>
<g><path style="opacity:0.988" fill="#6c7453" d="M 73.5,62.5 C 74.1667,62.5 74.8333,62.5 75.5,62.5C 74.9579,65.9122 73.6246,68.9122 71.5,71.5C 71.5,70.5 71.5,69.5 71.5,68.5C 72.7298,66.7028 73.3964,64.7028 73.5,62.5 Z"/></g>
<g><path style="opacity:0.8" fill="#66734f" d="M 76.5,61.5 C 76.56,60.9569 76.8933,60.6236 77.5,60.5C 81.0925,63.3485 83.4258,67.0152 84.5,71.5C 81.8333,68.1667 79.1667,64.8333 76.5,61.5 Z"/></g>
<g><path style="opacity:1" fill="#f2fbfb" d="M 203.5,55.5 C 203.837,58.6556 203.837,61.9889 203.5,65.5C 207.657,66.4489 211.99,67.1156 216.5,67.5C 216.66,69.1992 216.494,70.8659 216,72.5C 215.329,71.7476 214.496,71.4142 213.5,71.5C 212.391,71.4431 211.391,71.1098 210.5,70.5C 208.052,69.5269 205.385,69.1936 202.5,69.5C 202.824,73.5546 202.491,77.5546 201.5,81.5C 199.794,74.9541 199.127,68.2874 199.5,61.5C 200.222,61.9175 200.722,62.5842 201,63.5C 200.947,60.3248 201.78,57.6581 203.5,55.5 Z"/></g>
<g><path style="opacity:1" fill="#c8dedf" d="M 220.5,61.5 C 220.773,63.451 220.107,64.951 218.5,66C 220.134,66.4935 221.801,66.6602 223.5,66.5C 221.727,67.8923 219.727,69.059 217.5,70C 218.942,70.3768 219.942,71.2101 220.5,72.5C 218.468,73.0478 217.468,74.3812 217.5,76.5C 215.937,75.0552 214.604,73.3885 213.5,71.5C 214.496,71.4142 215.329,71.7476 216,72.5C 216.494,70.8659 216.66,69.1992 216.5,67.5C 211.99,67.1156 207.657,66.4489 203.5,65.5C 207.846,65.6657 212.179,65.499 216.5,65C 218.35,64.3103 219.684,63.1436 220.5,61.5 Z"/></g>
<g><path style="opacity:0.969" fill="#7f7d4e" d="M 101.5,78.5 C 102.412,77.2618 102.579,75.9285 102,74.5C 100.057,75.807 98.2232,75.807 96.5,74.5C 98.1439,74.7135 99.6439,74.3802 101,73.5C 105.637,67.8939 108.971,61.5605 111,54.5C 112.907,51.7133 114.407,51.88 115.5,55C 113.479,62.4119 110.312,69.2452 106,75.5C 104.871,77.1412 103.371,78.1412 101.5,78.5 Z"/></g>
<g><path style="opacity:1" fill="#797950" d="M 53.5,37.5 C 53.8333,37.5 54.1667,37.5 54.5,37.5C 54.1411,47.2239 54.6411,56.8906 56,66.5C 57.2619,70.1505 58.7619,70.1505 60.5,66.5C 60.8333,66.5 61.1667,66.5 61.5,66.5C 61.5,67.8333 61.5,69.1667 61.5,70.5C 64.5,70.1667 65.8333,71.5 65.5,74.5C 66.8333,74.5 68.1667,74.5 69.5,74.5C 69.2852,72.8212 69.9519,71.8212 71.5,71.5C 70.962,73.1172 70.6287,74.7839 70.5,76.5C 67.8333,76.5 65.1667,76.5 62.5,76.5C 62.719,75.325 62.3857,74.325 61.5,73.5C 58.3654,74.7828 55.3654,74.7828 52.5,73.5C 52.5,73.1667 52.5,72.8333 52.5,72.5C 55.2469,72.8134 57.9135,72.48 60.5,71.5C 59.6086,70.4104 58.6086,70.4104 57.5,71.5C 56.1861,70.6872 55.0195,69.6872 54,68.5C 53.502,65.5184 53.3354,62.5184 53.5,59.5C 53.5,52.8333 53.5,46.1667 53.5,39.5C 53.5,38.8333 53.5,38.1667 53.5,37.5 Z"/></g>
<g><path style="opacity:1" fill="#a8843d" d="M 65.5,60.5 C 65.4802,62.143 66.1468,63.4763 67.5,64.5C 66.8545,66.4321 65.5212,67.5988 63.5,68C 64.1079,68.8699 64.9412,69.3699 66,69.5C 67.6828,67.7144 69.5161,67.381 71.5,68.5C 71.5,69.5 71.5,70.5 71.5,71.5C 69.9519,71.8212 69.2852,72.8212 69.5,74.5C 68.1667,74.5 66.8333,74.5 65.5,74.5C 65.8333,71.5 64.5,70.1667 61.5,70.5C 61.5,69.1667 61.5,67.8333 61.5,66.5C 62.8333,64.5 64.1667,62.5 65.5,60.5 Z"/></g>
<g><path style="opacity:1" fill="#e5f4f5" d="M 252.5,67.5 C 255.198,72.5664 257.532,77.8998 259.5,83.5C 257.5,84.8333 255.5,84.8333 253.5,83.5C 252.199,80.5729 251.199,77.5729 250.5,74.5C 246.5,74.5 242.5,74.5 238.5,74.5C 237.402,73.603 237.402,72.7697 238.5,72C 241.817,71.5017 245.15,71.335 248.5,71.5C 249.434,70.4324 249.768,69.099 249.5,67.5C 250.5,67.5 251.5,67.5 252.5,67.5 Z"/></g>
<g><path style="opacity:1" fill="#617054" d="M 10.5,69.5 C 11.1667,70.1667 11.8333,70.8333 12.5,71.5C 12.2865,73.1439 12.6198,74.6439 13.5,76C 16.146,76.4974 18.8127,76.6641 21.5,76.5C 21.8333,76.5 22.1667,76.5 22.5,76.5C 14.3621,81.0226 10.3621,78.6892 10.5,69.5 Z"/></g>
<g><path style="opacity:1" fill="#90804a" d="M 90.5,63.5 C 92.2279,67.2872 94.2279,70.9539 96.5,74.5C 98.2232,75.807 100.057,75.807 102,74.5C 102.579,75.9285 102.412,77.2618 101.5,78.5C 94.3004,80.3136 88.6338,77.9802 84.5,71.5C 86.7607,72.2516 88.9274,73.2516 91,74.5C 91.8333,74.1667 92.6667,73.8333 93.5,73.5C 93.1543,72.3044 92.6543,72.3044 92,73.5C 91.3897,70.1727 90.8897,66.8394 90.5,63.5 Z"/></g>
<g><path style="opacity:0.043" fill="#2b5860" d="M 275.5,51.5 C 275.5,62.5 275.5,73.5 275.5,84.5C 274.807,75.9622 274.14,67.2955 273.5,58.5C 274.767,56.6293 274.767,54.7959 273.5,53C 274.044,52.2828 274.711,51.7828 275.5,51.5 Z"/></g>
<g><path style="opacity:1" fill="#d5e7e9" d="M 220.5,72.5 C 223.137,75.9887 225.637,79.6553 228,83.5C 229.275,79.9579 230.775,76.6245 232.5,73.5C 233.117,73.6107 233.617,73.944 234,74.5C 234.495,76.4727 234.662,78.4727 234.5,80.5C 234.634,82.2915 234.301,83.9582 233.5,85.5C 232.833,85.5 232.167,85.5 231.5,85.5C 228.359,84.6787 225.025,84.1787 221.5,84C 220.014,81.5255 218.681,79.0255 217.5,76.5C 217.468,74.3812 218.468,73.0478 220.5,72.5 Z"/></g>
<g><path style="opacity:0.839" fill="#a4c5ca" d="M 213.5,51.5 C 208.833,51.5 204.167,51.5 199.5,51.5C 199.5,54.8333 199.5,58.1667 199.5,61.5C 199.127,68.2874 199.794,74.9541 201.5,81.5C 202.491,77.5546 202.824,73.5546 202.5,69.5C 205.385,69.1936 208.052,69.5269 210.5,70.5C 208.167,70.5 205.833,70.5 203.5,70.5C 203.779,75.5947 203.445,80.5947 202.5,85.5C 201.833,85.5 201.167,85.5 200.5,85.5C 199.737,84.7321 198.737,84.2321 197.5,84C 198.487,72.9146 198.821,61.748 198.5,50.5C 203.695,50.1795 208.695,50.5128 213.5,51.5 Z"/></g>
<g><path style="opacity:1" fill="#cce2e4" d="M 319.5,79.5 C 319.5,80.5 319.5,81.5 319.5,82.5C 320.5,82.5 321.5,82.5 322.5,82.5C 321.41,83.8571 320.076,84.8571 318.5,85.5C 315.167,85.5 311.833,85.5 308.5,85.5C 302.628,83.7912 299.628,79.7912 299.5,73.5C 301.288,73.2148 302.955,73.5481 304.5,74.5C 305.301,77.1334 306.967,78.9667 309.5,80C 312.888,80.6588 316.221,80.4922 319.5,79.5 Z"/></g>
</svg>
