<?xml version="1.0" encoding="UTF-8"?>
<!DOCTYPE svg PUBLIC "-//W3C//DTD SVG 1.1//EN" "http://www.w3.org/Graphics/SVG/1.1/DTD/svg11.dtd">
<svg xmlns="http://www.w3.org/2000/svg" version="1.1" width="300px" height="119px" style="shape-rendering:geometricPrecision; text-rendering:geometricPrecision; image-rendering:optimizeQuality; fill-rule:evenodd; clip-rule:evenodd" xmlns:xlink="http://www.w3.org/1999/xlink">
<g><path style="opacity:0.689" fill="#fefffe" d="M 3.5,3.5 C 30.5,3.5 57.5,3.5 84.5,3.5C 84.5,40.1667 84.5,76.8333 84.5,113.5C 57.5,113.5 30.5,113.5 3.5,113.5C 3.5,76.8333 3.5,40.1667 3.5,3.5 Z M 49.5,81.5 C 54.7938,72.0879 52.2938,65.7546 42,62.5C 34.2777,64.2249 30.1111,69.0582 29.5,77C 32.7933,92.1485 41.7933,97.1485 56.5,92C 69.9305,79.3437 70.9305,65.677 59.5,51C 45.1993,39.7682 30.866,39.7682 16.5,51C 13.2809,54.5518 10.4476,58.3851 8,62.5C 7.50006,44.1697 7.33339,25.8364 7.5,7.5C 31.8333,7.5 56.1667,7.5 80.5,7.5C 80.6666,32.5022 80.5,57.5022 80,82.5C 69.5096,101.441 54.343,106.608 34.5,98C 23.4397,89.5903 20.9397,79.0903 27,66.5C 34.0713,59.0988 42.2379,57.5988 51.5,62C 57.6589,67.9171 57.9922,74.0838 52.5,80.5C 51.5832,81.1272 50.5832,81.4606 49.5,81.5 Z M 40.5,67.5 C 34.9648,73.465 35.2982,79.2983 41.5,85C 52.2576,87.594 57.9243,83.2607 58.5,72C 56.6598,58.5637 48.9931,53.2303 35.5,56C 23.6238,62.2622 19.1238,72.0956 22,85.5C 27.8817,100.862 39.0483,107.695 55.5,106C 66.1967,103.626 74.3634,97.7932 80,88.5C 80.4996,95.4921 80.6663,102.492 80.5,109.5C 56.1667,109.5 31.8333,109.5 7.5,109.5C 7.33343,95.8293 7.5001,82.1626 8,68.5C 18.6039,47.8545 34.4372,42.3545 55.5,52C 64.3883,59.746 66.8883,69.246 63,80.5C 57.5228,88.6594 50.0228,91.4927 40.5,89C 32.6259,84.9487 30.4592,78.7821 34,70.5C 35.7342,68.5494 37.9009,67.5494 40.5,67.5 Z"/></g>
<g><path style="opacity:0.485" fill="#fefffe" d="M 107.5,13.5 C 110.069,14.3956 112.069,16.0623 113.5,18.5C 114.833,16.5 116.5,14.8333 118.5,13.5C 119.492,17.7828 119.826,22.1161 119.5,26.5C 118.5,26.5 117.5,26.5 116.5,26.5C 116.664,23.8127 116.497,21.146 116,18.5C 114.333,22.5 112.667,22.5 111,18.5C 110.503,21.146 110.336,23.8127 110.5,26.5C 109.5,26.5 108.5,26.5 107.5,26.5C 107.5,22.1667 107.5,17.8333 107.5,13.5 Z"/></g>
<g><path style="opacity:0.537" fill="#fefffe" d="M 124.5,13.5 C 130.131,13.299 132.964,15.9656 133,21.5C 129.522,27.7271 125.522,28.0605 121,22.5C 119.98,18.5532 121.147,15.5532 124.5,13.5 Z M 125.5,15.5 C 130.266,16.158 131.6,18.658 129.5,23C 123.202,23.4954 121.868,20.9954 125.5,15.5 Z"/></g>
<g><path style="opacity:0.469" fill="#fefffe" d="M 134.5,13.5 C 137.41,15.2391 139.91,17.5724 142,20.5C 142.497,18.1902 142.663,15.8568 142.5,13.5C 143.5,13.5 144.5,13.5 145.5,13.5C 145.826,17.8839 145.492,22.2172 144.5,26.5C 141.81,24.644 139.644,22.3106 138,19.5C 137.667,21.5 137.333,23.5 137,25.5C 136.586,25.9574 136.086,26.2907 135.5,26.5C 134.508,22.2172 134.174,17.8839 134.5,13.5 Z"/></g>
<g><path style="opacity:0.521" fill="#fefffe" d="M 149.5,13.5 C 154.806,12.6408 158.14,14.8074 159.5,20C 156.866,26.866 152.7,28.0326 147,23.5C 145.861,19.5789 146.695,16.2456 149.5,13.5 Z M 151.5,15.5 C 155.708,16.2526 157.041,18.5859 155.5,22.5C 152.225,24.2145 149.892,23.3811 148.5,20C 149.222,18.2495 150.222,16.7495 151.5,15.5 Z"/></g>
<g><path style="opacity:0.515" fill="#fefffe" d="M 160.5,13.5 C 163.833,13.5 167.167,13.5 170.5,13.5C 170.5,17.8333 170.5,22.1667 170.5,26.5C 169.5,26.5 168.5,26.5 167.5,26.5C 167.5,23.1667 167.5,19.8333 167.5,16.5C 165.833,16.5 164.167,16.5 162.5,16.5C 162.82,19.8984 162.487,23.2317 161.5,26.5C 160.508,22.2172 160.174,17.8839 160.5,13.5 Z"/></g>
<g><path style="opacity:0.532" fill="#fefffe" d="M 176.5,13.5 C 178.335,14.1223 179.502,15.4556 180,17.5C 180.892,20.2837 182.058,22.9504 183.5,25.5C 183.167,25.8333 182.833,26.1667 182.5,26.5C 179.094,22.519 175.761,22.519 172.5,26.5C 172.167,26 171.833,25.5 171.5,25C 172.769,20.9655 174.435,17.1322 176.5,13.5 Z M 176.5,17.5 C 179.377,19.8455 179.044,20.6789 175.5,20C 176.252,19.3292 176.586,18.4959 176.5,17.5 Z"/></g>
<g><path style="opacity:0.506" fill="#fefffe" d="M 181.5,13.5 C 184.833,13.5 188.167,13.5 191.5,13.5C 191.5,14.5 191.5,15.5 191.5,16.5C 190.167,16.5 188.833,16.5 187.5,16.5C 186.833,29.8333 186.167,29.8333 185.5,16.5C 184.167,16.5 182.833,16.5 181.5,16.5C 181.5,15.5 181.5,14.5 181.5,13.5 Z"/></g>
<g><path style="opacity:0.487" fill="#fefffe" d="M 192.5,13.5 C 193.5,13.5 194.5,13.5 195.5,13.5C 195.335,17.1817 195.501,20.8484 196,24.5C 197.773,20.6134 199.773,16.9467 202,13.5C 204.393,17.2806 206.56,21.2806 208.5,25.5C 208,25.8333 207.5,26.1667 207,26.5C 203.523,22.5618 200.023,22.5618 196.5,26.5C 195.5,25.1667 194.5,25.1667 193.5,26.5C 192.508,22.2172 192.174,17.8839 192.5,13.5 Z M 201.5,17.5 C 204.377,19.8455 204.044,20.6789 200.5,20C 201.252,19.3292 201.586,18.4959 201.5,17.5 Z"/></g>
<g><path style="opacity:0.473" fill="#fefffe" d="M 212.5,13.5 C 213.5,13.5 214.5,13.5 215.5,13.5C 215.367,18.2717 216.7,18.4384 219.5,14C 220.332,13.3123 220.998,13.479 221.5,14.5C 220.167,16.1667 218.833,17.8333 217.5,19.5C 219.344,21.8429 221.344,24.0096 223.5,26C 220.358,25.9122 217.858,24.4122 216,21.5C 215.798,23.2556 215.298,24.9223 214.5,26.5C 213.914,26.2907 213.414,25.9574 213,25.5C 212.501,21.5138 212.334,17.5138 212.5,13.5 Z"/></g>
<g><path style="opacity:0.482" fill="#fefffe" d="M 222.5,13.5 C 225.091,14.2543 226.924,15.921 228,18.5C 228.635,17.0337 229.469,15.7003 230.5,14.5C 231.5,13.1667 232.5,13.1667 233.5,14.5C 230.075,17.762 228.742,21.762 229.5,26.5C 228.5,26.5 227.5,26.5 226.5,26.5C 226.663,24.1432 226.497,21.8098 226,19.5C 224.558,17.6089 223.391,15.6089 222.5,13.5 Z"/></g>
<g><path style="opacity:0.527" fill="#fefffe" d="M 236.5,13.5 C 243.329,12.8277 246.163,15.8277 245,22.5C 241,27.8333 237,27.8333 233,22.5C 232.333,20.8333 232.333,19.1667 233,17.5C 234.376,16.2949 235.542,14.9616 236.5,13.5 Z M 238.5,15.5 C 240.196,15.6854 241.529,16.5187 242.5,18C 240.167,18.6667 237.833,18.6667 235.5,18C 236.571,17.1482 237.571,16.3149 238.5,15.5 Z M 235.5,20.5 C 237.924,20.1924 240.257,20.5258 242.5,21.5C 240.956,23.4461 238.956,23.9461 236.5,23C 235.748,22.3292 235.414,21.4959 235.5,20.5 Z"/></g>
<g><path style="opacity:0.455" fill="#fefffe" d="M 246.5,13.5 C 247.5,13.5 248.5,13.5 249.5,13.5C 249.5,15.1667 249.5,16.8333 249.5,18.5C 251.167,18.5 252.833,18.5 254.5,18.5C 254.5,16.8333 254.5,15.1667 254.5,13.5C 255.5,13.5 256.5,13.5 257.5,13.5C 257.666,17.5138 257.499,21.5138 257,25.5C 256.586,25.9574 256.086,26.2907 255.5,26.5C 254.534,24.604 254.201,22.604 254.5,20.5C 252.833,20.5 251.167,20.5 249.5,20.5C 249.5,22.5 249.5,24.5 249.5,26.5C 248.5,26.5 247.5,26.5 246.5,26.5C 246.5,22.1667 246.5,17.8333 246.5,13.5 Z"/></g>
<g><path style="opacity:0.443" fill="#fefffe" d="M 258.5,13.5 C 262.007,12.9935 265.174,13.6602 268,15.5C 268.521,20.036 266.355,22.036 261.5,21.5C 261.5,23.1667 261.5,24.8333 261.5,26.5C 260.5,26.5 259.5,26.5 258.5,26.5C 258.5,22.1667 258.5,17.8333 258.5,13.5 Z M 261.5,16.5 C 262.978,16.238 264.311,16.5713 265.5,17.5C 264.833,17.8333 264.167,18.1667 263.5,18.5C 262.287,18.2528 261.62,17.5862 261.5,16.5 Z"/></g>
<g><path style="opacity:0.501" fill="#fefffe" d="M 272.5,13.5 C 275.044,13.1043 277.211,13.771 279,15.5C 279.998,19.1295 280.498,22.7962 280.5,26.5C 278.833,26.5 277.167,26.5 275.5,26.5C 276.151,24.1743 276.818,21.8409 277.5,19.5C 275.607,14.2318 273.607,14.2318 271.5,19.5C 272.034,21.6145 273.034,23.4478 274.5,25C 273.095,26.2692 271.429,26.7692 269.5,26.5C 269.833,23.3158 270,19.9825 270,16.5C 271.045,15.6266 271.878,14.6266 272.5,13.5 Z"/></g>
<g><path style="opacity:0.48" fill="#fefffe" d="M 281.5,13.5 C 284.828,14.6998 287.328,17.0331 289,20.5C 289.497,18.1902 289.663,15.8568 289.5,13.5C 290.5,13.5 291.5,13.5 292.5,13.5C 292.826,17.8839 292.492,22.2172 291.5,26.5C 289.174,24.0029 287.007,21.3362 285,18.5C 284.818,21.2263 284.318,23.8929 283.5,26.5C 282.914,26.2907 282.414,25.9574 282,25.5C 281.767,21.331 281.6,17.331 281.5,13.5 Z"/></g>
<g><path style="opacity:0.689" fill="#fefffe" d="M 107.5,37.5 C 108.833,37.5 110.167,37.5 111.5,37.5C 111.335,41.1817 111.501,44.8484 112,48.5C 115.534,44.6311 119.367,41.1311 123.5,38C 125.259,37.2025 126.926,37.3691 128.5,38.5C 123.982,42.8521 119.316,47.0188 114.5,51C 120.316,55.649 125.649,60.8157 130.5,66.5C 130.333,66.8333 130.167,67.1667 130,67.5C 128.266,66.7511 126.433,66.2511 124.5,66C 120.333,61.8333 116.167,57.6667 112,53.5C 111.501,57.8206 111.334,62.1539 111.5,66.5C 110.167,66.5 108.833,66.5 107.5,66.5C 107.5,56.8333 107.5,47.1667 107.5,37.5 Z"/></g>
<g><path style="opacity:0.693" fill="#fefffe" d="M 130.5,37.5 C 131.873,37.3433 133.207,37.51 134.5,38C 137.719,41.5518 140.552,45.3851 143,49.5C 146.219,45.9482 149.052,42.1149 151.5,38C 153.167,37.3333 154.833,37.3333 156.5,38C 153,42.8333 149.5,47.6667 146,52.5C 145.501,57.1548 145.334,61.8215 145.5,66.5C 144.167,66.5 142.833,66.5 141.5,66.5C 141.666,62.1539 141.499,57.8206 141,53.5C 137.231,48.2808 133.731,42.9475 130.5,37.5 Z"/></g>
<g><path style="opacity:0.629" fill="#fefffe" d="M 157.5,37.5 C 165.167,37.5 172.833,37.5 180.5,37.5C 180.5,38.8333 180.5,40.1667 180.5,41.5C 177.102,41.1796 173.768,41.513 170.5,42.5C 171.633,50.1171 171.8,57.7837 171,65.5C 169.644,66.3802 168.144,66.7135 166.5,66.5C 166.5,58.1667 166.5,49.8333 166.5,41.5C 163.5,41.5 160.5,41.5 157.5,41.5C 157.5,40.1667 157.5,38.8333 157.5,37.5 Z"/></g>
<g><path style="opacity:0.646" fill="#fefffe" d="M 184.5,37.5 C 185.833,37.5 187.167,37.5 188.5,37.5C 188.5,41.5 188.5,45.5 188.5,49.5C 193.5,49.5 198.5,49.5 203.5,49.5C 203.5,45.5 203.5,41.5 203.5,37.5C 205.167,37.5 206.833,37.5 208.5,37.5C 208.5,47.1667 208.5,56.8333 208.5,66.5C 206.833,66.5 205.167,66.5 203.5,66.5C 203.5,62.1667 203.5,57.8333 203.5,53.5C 198.5,53.5 193.5,53.5 188.5,53.5C 188.5,57.8333 188.5,62.1667 188.5,66.5C 187.167,66.5 185.833,66.5 184.5,66.5C 184.5,56.8333 184.5,47.1667 184.5,37.5 Z"/></g>
<g><path style="opacity:0.686" fill="#fefffe" d="M 214.5,37.5 C 221.167,37.5 227.833,37.5 234.5,37.5C 234.5,38.8333 234.5,40.1667 234.5,41.5C 229.167,41.5 223.833,41.5 218.5,41.5C 218.5,44.1667 218.5,46.8333 218.5,49.5C 222.833,49.5 227.167,49.5 231.5,49.5C 231.5,50.8333 231.5,52.1667 231.5,53.5C 227.167,53.5 222.833,53.5 218.5,53.5C 218.5,56.5 218.5,59.5 218.5,62.5C 224.167,62.5 229.833,62.5 235.5,62.5C 235.5,63.8333 235.5,65.1667 235.5,66.5C 228.5,66.5 221.5,66.5 214.5,66.5C 214.5,56.8333 214.5,47.1667 214.5,37.5 Z"/></g>
<g><path style="opacity:0.655" fill="#fefffe" d="M 239.5,37.5 C 245.176,37.3339 250.843,37.5006 256.5,38C 264.35,43.2876 264.35,48.621 256.5,54C 258.972,57.9713 261.638,61.8046 264.5,65.5C 262.833,66.8333 261.167,66.8333 259.5,65.5C 257.167,62.1667 254.833,58.8333 252.5,55.5C 249.554,54.3452 246.554,54.1786 243.5,55C 244.46,58.73 244.793,62.5633 244.5,66.5C 242.833,66.5 241.167,66.5 239.5,66.5C 239.5,56.8333 239.5,47.1667 239.5,37.5 Z M 243.5,42.5 C 247.311,41.3547 251.311,41.1881 255.5,42C 257.418,43.7702 257.918,45.9369 257,48.5C 252.729,50.4956 248.229,50.9956 243.5,50C 244.814,47.3953 244.814,44.8953 243.5,42.5 Z"/></g>
<g><path style="opacity:0.674" fill="#fefffe" d="M 278.5,37.5 C 279.978,37.238 281.311,37.5713 282.5,38.5C 287.069,47.6334 291.069,56.9667 294.5,66.5C 293.127,66.6567 291.793,66.49 290.5,66C 289.692,63.9124 288.692,61.9124 287.5,60C 282.833,59.3333 278.167,59.3333 273.5,60C 272.373,61.7533 271.373,63.5866 270.5,65.5C 269.009,66.2436 267.509,66.9103 266,67.5C 269.84,57.5133 274.006,47.5133 278.5,37.5 Z M 279.5,44.5 C 280.376,44.3691 281.043,44.7025 281.5,45.5C 282.833,48.5 284.167,51.5 285.5,54.5C 282.167,55.8333 278.833,55.8333 275.5,54.5C 277.4,51.3707 278.733,48.0373 279.5,44.5 Z"/></g>
<g><path style="opacity:0.686" fill="#fefffe" d="M 174.5,76.5 C 175.643,76.9081 176.643,77.5748 177.5,78.5C 182.069,87.6334 186.069,96.9667 189.5,106.5C 188.127,106.657 186.793,106.49 185.5,106C 184.601,103.808 183.601,101.642 182.5,99.5C 177.869,98.3384 173.202,98.1717 168.5,99C 167.601,101.192 166.601,103.358 165.5,105.5C 163.926,106.631 162.259,106.798 160.5,106C 165.08,96.0767 169.747,86.2434 174.5,76.5 Z M 174.5,83.5 C 177.119,86.5618 179.119,90.0618 180.5,94C 177.118,94.8236 173.784,94.657 170.5,93.5C 172.4,90.3707 173.733,87.0373 174.5,83.5 Z"/></g>
<g><path style="opacity:0.672" fill="#fefffe" d="M 233.5,76.5 C 238.032,76.074 242.199,77.074 246,79.5C 246.781,80.9437 246.614,82.277 245.5,83.5C 241.367,80.5674 237.034,80.0674 232.5,82C 229.956,83.7748 229.956,85.6082 232.5,87.5C 238.057,88.404 242.89,90.7373 247,94.5C 249.065,99.6296 247.565,103.463 242.5,106C 237.311,106.985 232.311,106.485 227.5,104.5C 226.643,103.264 225.977,101.931 225.5,100.5C 226,100.167 226.5,99.8333 227,99.5C 232.21,102.957 237.543,103.29 243,100.5C 243.825,98.2992 243.325,96.4659 241.5,95C 237.884,93.5131 234.217,92.1798 230.5,91C 224.753,84.9047 225.753,80.0714 233.5,76.5 Z"/></g>
<g><path style="opacity:0.62" fill="#fefffe" d="M 107.5,77.5 C 115.167,77.5 122.833,77.5 130.5,77.5C 130.5,78.8333 130.5,80.1667 130.5,81.5C 127.15,81.335 123.817,81.5017 120.5,82C 121.482,90.081 121.816,98.2476 121.5,106.5C 119.833,106.5 118.167,106.5 116.5,106.5C 116.5,98.1667 116.5,89.8333 116.5,81.5C 113.5,81.5 110.5,81.5 107.5,81.5C 107.5,80.1667 107.5,78.8333 107.5,77.5 Z"/></g>
<g><path style="opacity:0.693" fill="#fefffe" d="M 134.5,77.5 C 140.176,77.3339 145.843,77.5006 151.5,78C 159.405,83.1413 159.405,88.4746 151.5,94C 153.972,97.9713 156.638,101.805 159.5,105.5C 157.833,106.833 156.167,106.833 154.5,105.5C 151.638,101.805 148.972,97.9713 146.5,94C 143.854,93.5026 141.187,93.3359 138.5,93.5C 138.5,97.8333 138.5,102.167 138.5,106.5C 137.167,106.5 135.833,106.5 134.5,106.5C 134.5,96.8333 134.5,87.1667 134.5,77.5 Z M 138.5,81.5 C 142.514,81.3345 146.514,81.5012 150.5,82C 152.725,84.025 153.059,86.3583 151.5,89C 147.179,89.499 142.846,89.6657 138.5,89.5C 138.5,86.8333 138.5,84.1667 138.5,81.5 Z"/></g>
<g><path style="opacity:0.572" fill="#fefffe" d="M 193.5,77.5 C 195.167,77.5 196.833,77.5 198.5,77.5C 198.666,86.8393 198.5,96.1726 198,105.5C 196.644,106.38 195.144,106.714 193.5,106.5C 193.5,96.8333 193.5,87.1667 193.5,77.5 Z"/></g>
<g><path style="opacity:0.694" fill="#fefffe" d="M 204.5,77.5 C 205.833,77.5 207.167,77.5 208.5,77.5C 208.5,85.8333 208.5,94.1667 208.5,102.5C 213.833,102.5 219.167,102.5 224.5,102.5C 224.5,103.833 224.5,105.167 224.5,106.5C 217.833,106.5 211.167,106.5 204.5,106.5C 204.5,96.8333 204.5,87.1667 204.5,77.5 Z"/></g>
</svg>
